# xmcd CD database file
#
# Track frame offsets:
#	183
#	15535
#	28098
#	39720
#	50450
#	64730
#	76355
#	87095
#	98905
#	114688
#	128790
#	144800
#
# Disc length: 2084 seconds
#
# Revision: 1
# Processed by: cddbd v1.5.1PL0 Copyright (c) Steve Scherf et al.
# Submitted via: CDex 1.51
#
DISCID=9708220c
DTITLE=Kenny Rogers - For the good time
DYEAR=1990
DGENRE=Country
TTITLE0=Fot the good times
TTITLE1=Reuben James
TTITLE2=Me and Bobby McGee
TTITLE3=She even woke me up to say goodbye
TTITLE4=Its raining in my mind
TTITLE5=Poem for my little lady
TTITLE6=Home made lies
TTITLE7=What am I gonna do
TTITLE8=The way it used to be
TTITLE9=Sunshine
TTITLE10=I found a reason
TTITLE11=Girl get a hold of yorself
EXTD=YEAR: 1990
EXTT0=
EXTT1=
EXTT2=
EXTT3=
EXTT4=
EXTT5=
EXTT6=
EXTT7=
EXTT8=
EXTT9=
EXTT10=
EXTT11=
PLAYORDER=
